<?xml version="1.0" standalone="no"?>
<!DOCTYPE svg PUBLIC "-//W3C//DTD SVG 20010904//EN"
 "http://www.w3.org/TR/2001/REC-SVG-20010904/DTD/svg10.dtd">
<svg version="1.0" xmlns="http://www.w3.org/2000/svg"
 width="51.000000" height="62.000000" viewBox="0 0 51.000000 62.000000"
 preserveAspectRatio="xMidYMid meet">
<metadata>
Created by potrace 1.15, written by Peter Selinger 2001-2017
</metadata>
<g transform="translate(0.000000,62.000000) scale(0.100000,-0.100000)"
fill="#003469" stroke="none">
<path d="M123 572 l-103 -46 0 -72 c0 -40 -4 -76 -10 -79 -5 -3 -10 -17 -10
-30 0 -28 34 -43 55 -25 17 14 20 46 5 55 -5 3 -10 35 -10 70 l0 65 32 -14
c185 -79 170 -75 208 -59 19 9 70 29 113 46 43 17 77 36 77 43 0 8 -4 14 -10
14 -5 0 -50 18 -99 40 -49 22 -102 40 -117 39 -16 0 -75 -21 -131 -47z"/>
<path d="M112 443 c-15 -39 -7 -117 15 -149 l22 -31 -42 -12 c-23 -7 -57 -27
-74 -44 -32 -30 -33 -33 -33 -119 l0 -88 255 0 255 0 0 99 c0 95 -1 101 -25
119 -14 11 -48 26 -75 33 l-50 13 21 22 c35 37 39 174 5 174 -8 0 -40 -12 -72
-26 l-58 -25 -60 25 c-72 31 -75 31 -84 9z"/>
</g>
</svg>
